<svg xmlns:dc="http://purl.org/dc/elements/1.1/" xmlns:cc="http://creativecommons.org/ns#" xmlns:rdf="http://www.w3.org/1999/02/22-rdf-syntax-ns#" xmlns:svg="http://www.w3.org/2000/svg" xmlns="http://www.w3.org/2000/svg" xmlns:sodipodi="http://sodipodi.sourceforge.net/DTD/sodipodi-0.dtd" xmlns:inkscape="http://www.inkscape.org/namespaces/inkscape" version="1.1" enable-background="new 0 0 32 21" xml:space="preserve" inkscape:version="0.48.4 r9939" width="32" height="32" sodipodi:docname="azure.svg" style=""><rect id="backgroundrect" width="100%" height="100%" x="0" y="0" fill="none" stroke="none"/><metadata id="metadata15"><rdf:RDF><cc:Work rdf:about=""><dc:format>image/svg+xml</dc:format><dc:type rdf:resource="http://purl.org/dc/dcmitype/StillImage"/></cc:Work></rdf:RDF></metadata><defs id="defs13"/><sodipodi:namedview pagecolor="#ffffff" bordercolor="#666666" borderopacity="1" objecttolerance="10" gridtolerance="10" guidetolerance="10" inkscape:pageopacity="0" inkscape:pageshadow="2" inkscape:window-width="678" inkscape:window-height="613" id="namedview11" showgrid="false" inkscape:zoom="9.4375" inkscape:cx="16" inkscape:cy="10.5" inkscape:window-x="839" inkscape:window-y="644" inkscape:window-maximized="0" inkscape:current-layer="Layer_1"/><g class="currentLayer" style=""><title>Layer 1</title><g id="g3" class="selected" fill="#6d6d6d" fill-opacity="1"><g id="g5" fill="#6d6d6d" fill-opacity="1"><path d="m19,17.49602642059326 c-0.8,0 -1.5,0.5 -1.9,1.2 H5.3 v0 c-2,0 -3.6,-1.7000000000000002 -3.6,-3.7 c0,-2 1.6,-3.7 3.6,-3.7 v0 h0 h0 H7 C7,10.896026420593262 7.2,10.496026420593262 7.3,10.096026420593262 C7.4,9.996026420593262 7.4,9.796026420593261 7.5,9.696026420593261 C8.3,8.196026420593261 9.9,7.196026420593261 11.7,7.196026420593261 c1.6,0 3,0.8 3.9,2 c0.5,-0.2 1,-0.4 1.6,-0.5 C16.1,6.796026420593262 14.1,5.596026420593262 11.7,5.596026420593262 C9,5.596026420593262 6.7,7.296026420593262 5.7,9.696026420593261 c0,0 0,0 0,0 l0,0 c0,0 0,0 0,0 H5.3 C2.4,9.696026420593261 0,12.096026420593262 0,15.096026420593262 c0,3 2.4,5.3 5.3,5.3 h11.9 c0.30000000000000004,0.7000000000000001 1,1.2 1.9,1.2 c1.1,0 2,-0.9 2,-2.1 c0,-1.2 -0.9,-2 -2.1,-2 z" id="path7" inkscape:connector-curvature="0" fill="#6d6d6d" fill-opacity="1"/><path d="M25.6,13.396026420593262 C24.4,10.996026420593262 21.9,9.296026420593261 19.1,9.296026420593261 C15.6,9.296026420593261 12.7,11.796026420593261 12,15.096026420593262 C10.3,15.296026420593261 8.8,16.196026420593263 7.9,17.49602642059326 h8.7 c0.6000000000000001,-0.8 1.5,-1.2 2.5,-1.2 c1.8,0 3.2,1.5 3.2,3.3 c0,1.8 -1.5,3.3 -3.2,3.3 c-1,0 -1.9,-0.5 -2.5,-1.2 H6.9 c0.4,2.8 2.8,5 5.6,5 c0,0 0,0 0,0 v0 h13 v0 c0,0 0,0 0,0 c3.6,0 6.5,-2.9 6.5,-6.6 c0,-3.7 -2.9,-6.6 -6.4,-6.7 z" id="path9" inkscape:connector-curvature="0" fill="#6d6d6d" fill-opacity="1"/></g></g></g></svg>