<svg xmlns:rdf="http://www.w3.org/1999/02/22-rdf-syntax-ns#" xmlns="http://www.w3.org/2000/svg" xmlns:cc="http://creativecommons.org/ns#" xmlns:dc="http://purl.org/dc/elements/1.1/" height="80" width="80" version="1.1"><rect id="backgroundrect" width="100%" height="100%" x="0" y="0" fill="none" stroke="none"/>
 <metadata id="metadata13">
  <rdf:RDF>
   <cc:Work rdf:about="">
    <dc:format>image/svg+xml</dc:format>
    <dc:type rdf:resource="http://purl.org/dc/dcmitype/StillImage"/>
    <dc:title/>
   </cc:Work>
  </rdf:RDF>
 </metadata>
 
<g class="currentLayer" style=""><title>Layer 1</title><g id="#000000ff" fill="#919191" class="selected" fill-opacity="1">
  <path id="path5" d="m71.6377980702,20.2026596012 c0,-4.0614856598 -0.003117026600000001,-8.119854293000001 0.003117026600000001,-12.1813399528 c0.8571823150000001,-0.003117026600000001 1.7174816566,-0.003117026600000001 2.5777809982,-0.003117026600000001 c0.012468106400000003,3.8339427180000003 0,7.667885436000001 0.006234053200000002,11.501828154 c1.9263224388,-0.5111923624000001 3.8464108244000004,-1.0348528312 5.7727332632,-1.5460451936000001 c0.003117026600000001,2.1382802476 0.003117026600000001,4.2765604952 0,6.4179577694 c-1.9232054122000002,0.5205434422 -3.8526448776,1.0317358046 -5.7727332632,1.5553962734000002 c0,5.2272536082 -0.003117026600000001,10.457624243 0,15.684877851200001 c1.9263224388,-0.5111923624000001 3.8464108244000004,-1.0348528312 5.7727332632,-1.5460451936000001 c0.003117026600000001,2.1382802476 0,4.2765604952 0,6.4148407428 c-1.9232054122000002,0.5236604688000001 -3.849527851,1.0317358046 -5.7727332632,1.5553962734000002 c-0.006234053200000002,3.7840702924000005 0,7.568140584800001 -0.003117026600000001,11.352210877200001 c-0.8602993416000001,0 -1.7237157098000002,0 -2.5840150513999998,-0.003117026600000001 c-0.003117026600000001,-3.5658784304 0.003117026600000001,-7.1348738874 0,-10.700752317800001 c-3.8401767712000003,1.0317358046 -7.6772365158,2.0634716092 -11.5142962604,3.1045584936000004 c-0.003117026600000001,4.0646026864 0.003117026600000001,8.126088346200001 -0.003117026600000001,12.1906910326 h-2.5996001844000003 c-0.006234053200000002,-3.8339427180000003 0.003117026600000001,-7.671002462600001 -0.003117026600000001,-11.5049451806 c-1.9200883856000002,0.5111923624000001 -3.8339427180000003,1.0348528312 -5.754031103600001,1.5429281670000001 c-0.003117026600000001,-2.150748354 -0.003117026600000001,-4.301496708 0,-6.452245062 c1.9169713590000002,-0.5236604688000001 3.8370597446000003,-1.028618778 5.754031103600001,-1.5522792468000002 c0,-5.214785501800001 0.006234053200000002,-10.4326880302 0,-15.647473532000001 c-1.9200883856000002,0.5080753358000001 -3.8339427180000003,1.0317358046 -5.754031103600001,1.5429281670000001 c-0.003117026600000001,-2.1413972742 -0.003117026600000001,-4.2796775218 0,-6.4179577694 c1.9169713590000002,-0.5236604688000001 3.8370597446000003,-1.028618778 5.754031103600001,-1.5522792468000002 c0.003117026600000001,-3.7871873190000005 0,-7.5774916646 0.003117026600000001,-11.367796010200001 c0.8665333948000001,0 1.7330667896000003,0 2.602717211,0.003117026600000001 c0.003117026600000001,3.568995457 -0.003117026600000001,7.1411079406 0,10.7132204242 c3.8401767712000003,-1.0317358046 7.6772365158,-2.0634716092 11.5142962604,-3.1045584936000004 m-11.5111792338,9.5287503162 c-0.006234053200000002,5.2179025284 -0.003117026600000001,10.4358050568 -0.003117026600000001,15.653707585200001 c3.8401767712000003,-1.0348528312 7.6772365158,-2.0697056624 11.5142962604,-3.1045584936000004 c0,-5.2179025284 0.003117026600000001,-10.4326880302 -0.003117026600000001,-15.650590558600001 c-3.8370597446000003,1.028618778 -7.671002462600001,2.0697056624 -11.508062207200002,3.101441467 z" stroke-width="0" fill="#919191" fill-opacity="1"/>
  <path id="path7" d="m13.393039022600002,11.076005716400001 c4.563326942400001,-2.2317910456 9.7968146038,-2.8396112326 14.812110403200002,-2.2847804978000004 c4.7659336714,0.5361285752000001 9.422771411800001,2.6432385568 12.689415288600001,6.202882934 c2.3720572426000004,2.5372596524000004 3.9243364894000003,5.7290948908 4.906199868400001,9.036260113400001 c-2.2816634712000003,0.5423626284 -4.563326942400001,1.0847252568 -6.8481074402,1.620853832 c-1.2062892942,-3.8775810904 -3.5066549250000003,-7.683470569 -7.250203871600001,-9.5505695024 c-4.161230511,-2.0510035028 -9.1578241508,-1.8733329866000001 -13.496725178,-0.48002209640000004 c-4.800220964,1.5772154596 -8.151024559,5.925467566600001 -9.6222611142,10.6197096262 c-1.6894284172,5.3831049382 -1.6364389650000002,11.190125494 -0.6701607190000001,16.704145549400003 c0.7730225968000001,4.4448799316 2.9674093232,8.771312852400001 6.7140752964,11.417668435800001 c4.1020070056,3.0079306690000003 9.6253781408,3.5347081644 14.459886397400002,2.3097167106 c3.7030276008000005,-0.9413420332000001 6.8138201476,-3.6188678826 8.540652884,-6.9977247170000005 c0.9849804056000001,-1.8296946142000001 1.6239708586000001,-3.8245916382000003 2.1164610614000003,-5.8381908218000005 c2.3190677904,0.592235054 4.644369634,1.1657679484 6.9603203978,1.776705162 c-1.2873319858,4.896848788600001 -3.6375700422,9.725122992000001 -7.6616513828,12.9450114698 c-4.1518794312,3.413144127 -9.6253781408,4.875029602400001 -14.9430255204,4.706710166000001 c-5.975339992200001,-0.059223505400000015 -12.3153720966,-1.7174816566 -16.5389431396,-6.184180774400001 c-4.2360391494,-4.588263155200001 -6.598745312200001,-10.691401238 -7.3063103504,-16.844411746400002 c-0.5860010008000001,-5.775850289800001 -0.25247915460000003,-11.788594601200002 1.9668437846000002,-17.209103858600002 c2.0915248486,-5.1742641560000004 6.1623615882000005,-9.5006970768 11.171423334400002,-11.950679984400002 z" stroke-width="0" fill="#919191" fill-opacity="1"/>
 </g></g></svg>