<svg xmlns:svg="http://www.w3.org/2000/svg" xmlns:dc="http://purl.org/dc/elements/1.1/" xmlns:rdf="http://www.w3.org/1999/02/22-rdf-syntax-ns#" xmlns:cc="http://creativecommons.org/ns#" xmlns="http://www.w3.org/2000/svg" xmlns:xlink="http://www.w3.org/1999/xlink" version="1.1" baseProfile="basic" width="100" height="100" xml:space="preserve" style=""><rect id="backgroundrect" width="100%" height="100%" x="0" y="0" fill="none" stroke="none"/>


<g class="currentLayer" style=""><title>Layer 1</title><path d="M51.167,0c-1.959,11.753-22.245,21.568-22.245,50.217c0,25.908,14.264,33.808,17.203,35.033  C51.511,79.617,50.677,33.056,51.167,0z" id="svg_1" class="" fill="#919191" fill-opacity="1"/><path d="M51.875,6.375c2.5,6.625,18.918,23.273,18.918,43.842s-9.06,30.118-16.895,35.749c0,0,0,7.897,0,9.611  s-1.377,2.571-2.234,2.571s-2.418-0.796-2.418-2.143s0-9.427,0-9.427C56.346,83.395,52.242,27.066,51.875,6.375z" id="svg_2" class="" fill="#919191" fill-opacity="1"/></g></svg>